HIERARCHY
ROOT hip
{
	OFFSET 0.000000 0.000000 0.000000 
	CHANNELS 6 Xposition Yposition Zposition Xrotation Zrotation Yrotation
	JOINT abdomen
	{
		OFFSET 0.000000 3.402643 0.000000 
		CHANNELS 3 Xrotation Zrotation Yrotation
		JOINT chest
		{
			OFFSET 0.000000 8.438565 -0.680529 
			CHANNELS 3 Xrotation Zrotation Yrotation
			JOINT neck
			{
				OFFSET 0.000000 10.207942 -0.272212 
				CHANNELS 3 Xrotation Zrotation Yrotation
				JOINT head
				{
					OFFSET 0.000000 3.130431 0.000000 
					CHANNELS 3 Xrotation Zrotation Yrotation
					End Site
					{
						OFFSET 0.000000 3.130435 0.000000 
					}
				}
			}
			JOINT lCollar
			{
				OFFSET 3.470700 6.669187 -0.816635 
				CHANNELS 3 Yrotation Zrotation Xrotation
				JOINT lShldr
				{
					OFFSET 3.198488 0.000000 0.000000 
					CHANNELS 3 Zrotation Yrotation Xrotation
					JOINT lForeArm
					{
						OFFSET 10.139888 0.000000 0.000000 
						CHANNELS 3 Yrotation Zrotation Xrotation
						JOINT lHand
						{
							OFFSET 8.370511 0.000000 0.000000 
							CHANNELS 3 Zrotation Yrotation Xrotation
							End Site
							{
								OFFSET 4.083176 0.000000 0.000000 
							}
						}
					}
				}
			}
			JOINT rCollar
			{
				OFFSET -3.470700 6.669187 -0.816635 
				CHANNELS 3 Yrotation Zrotation Xrotation
				JOINT rShldr
				{
					OFFSET -3.198488 0.000000 0.000000 
					CHANNELS 3 Zrotation Yrotation Xrotation
					JOINT rForeArm
					{
						OFFSET -10.139888 0.000000 0.000000 
						CHANNELS 3 Yrotation Zrotation Xrotation
						JOINT rHand
						{
							OFFSET -8.370511 0.000000 0.000000 
							CHANNELS 3 Zrotation Yrotation Xrotation
							End Site
							{
								OFFSET -4.083176 0.000000 0.000000 
							}
						}
					}
				}
			}
		}
	}
	JOINT lThigh
	{
		OFFSET 5.308129 -1.633274 1.361059 
		CHANNELS 3 Xrotation Zrotation Yrotation
		JOINT lShin
		{
			OFFSET -2.041588 -20.007561 0.000000 
			CHANNELS 3 Xrotation Zrotation Yrotation
			JOINT lFoot
			{
				OFFSET 0.000000 -19.190928 -1.224953 
				CHANNELS 3 Xrotation Yrotation Zrotation
				End Site
				{
					OFFSET 0.000000 -2.449906 4.627600 
				}
			}
		}
	}
	JOINT rThigh
	{
		OFFSET -5.308129 -1.633274 1.361059 
		CHANNELS 3 Xrotation Zrotation Yrotation
		JOINT rShin
		{
			OFFSET 2.041588 -20.007561 0.000000 
			CHANNELS 3 Xrotation Zrotation Yrotation
			JOINT rFoot
			{
				OFFSET 0.000000 -19.190928 -1.224953 
				CHANNELS 3 Xrotation Yrotation Zrotation
				End Site
				{
					OFFSET 0.000000 -2.449906 4.627600 
				}
			}
		}
	}
}
MOTION
Frames: 6
Frame Time: 0.033333
-0.466051 46.992416 -3.065563 -6.426185 0.640482 -3.675647 0.000000 0.000000 0.000000 2.207162 -0.624536 1.948482 1.988589 -0.267611 2.319429 12.334763 -1.169392 0.685279 -0.060307 9.107996 2.708472 13.919651 -57.105225 -34.672237 -36.063080 -7.739597 33.703461 6.361739 -5.379684 -3.855600 4.682204 -9.090526 2.817410 -11.384768 59.675827 -24.957563 28.221663 3.996592 23.271198 -9.070922 12.990438 -4.561213 -5.458774 17.981773 14.068113 32.095779 -5.024734 1.679082 -14.622334 1.404359 -10.698745 -7.977117 -18.742529 -10.704453 32.782623 2.363143 6.613652 -15.775423 -1.360016 9.892484 
-0.464794 46.979580 -3.119676 -6.416443 0.659903 -3.697252 0.000000 0.000000 0.000000 2.226735 -0.712352 1.954604 1.908713 -0.081683 2.374911 12.285963 -1.198693 0.821109 -0.056861 9.391838 2.717290 14.066821 -57.091476 -34.954437 -36.012661 -7.742264 33.648193 6.359161 -5.340706 -3.855594 4.871058 -9.130223 2.840791 -11.293267 59.264767 -25.017027 28.461687 3.903859 23.436024 -9.130817 12.859132 -4.562487 -5.585490 17.953901 14.015925 32.212791 -4.991917 1.774894 -14.625716 1.379101 -10.723427 -8.104182 -18.763786 -10.672013 32.859890 2.363274 6.647622 -15.744264 -1.364364 9.911459 
-0.448055 46.984116 -3.144718 -6.484833 0.679220 -3.739307 0.000000 0.000000 0.000000 2.275576 -0.731844 2.011813 1.921780 -0.008908 2.316141 12.286217 -1.374111 0.790263 0.027857 9.532182 2.765086 13.963036 -57.227779 -35.025135 -36.004574 -7.775795 33.506435 6.331110 -5.362118 -3.854014 4.450816 -8.921680 2.845052 -11.716496 59.773212 -25.462841 28.091396 3.938720 23.755804 -9.248122 12.978451 -4.591765 -5.517485 17.886627 13.991453 32.179672 -4.986568 1.934255 -14.583298 1.378082 -10.744839 -8.084276 -18.821211 -10.723016 32.856518 2.358089 6.752793 -15.702526 -1.345428 9.821712 
-0.448559 46.969139 -3.172656 -6.523898 0.679168 -3.700708 0.000000 0.000000 0.000000 2.265805 -0.722091 1.983028 1.706813 0.013715 2.210225 13.175397 -1.499123 0.758830 -0.196388 9.698383 2.774318 13.711948 -56.897507 -34.723759 -36.197842 -7.722507 33.561588 6.130228 -5.443769 -3.833139 4.361195 -8.896544 2.832586 -11.669758 59.801880 -25.453951 28.118870 3.904243 23.742224 -9.227044 12.960299 -4.578829 -5.624861 17.876072 13.931694 32.314838 -4.947253 1.961967 -14.585188 1.393615 -10.747543 -8.093534 -18.858076 -10.741463 32.931412 2.392644 6.805767 -15.719759 -1.324457 9.822485 
-0.464288 46.965485 -3.201852 -6.611731 0.630544 -3.715660 0.000000 0.000000 0.000000 2.334190 -0.761087 2.039163 1.831041 0.176659 2.246210 12.804472 -1.645959 0.826153 0.143587 9.547796 2.809375 14.291656 -57.490482 -35.304153 -35.836834 -7.748855 33.797348 6.189555 -5.449678 -3.846086 4.351841 -8.756301 2.887787 -11.806273 59.597267 -25.354059 28.364697 3.923770 23.350597 -9.276960 12.966707 -4.591041 -5.595540 17.936474 13.945747 32.357296 -4.913438 1.919210 -14.573424 1.390994 -10.759599 -8.075414 -18.774458 -10.694787 32.982742 2.363359 6.781501 -15.723194 -1.337734 9.804193 
-0.472217 46.959446 -3.234823 -6.640936 0.552906 -3.746010 0.000000 0.000000 0.000000 2.343926 -0.702537 1.953549 1.827380 0.158134 2.121972 12.804597 -1.704395 0.821854 -0.112706 9.790793 2.834456 13.936871 -56.891232 -34.740173 -36.256073 -7.748218 33.278511 6.175780 -5.538659 -3.845967 4.346704 -8.774724 2.905756 -11.730998 59.714588 -25.452135 28.411890 3.889888 23.438585 -8.927557 12.921807 -4.534800 -5.624527 18.020605 13.934711 32.413483 -4.869543 1.945413 -14.576159 1.388931 -10.815695 -8.094286 -18.685320 -10.643573 32.993198 2.363354 6.762731 -15.693194 -1.327813 9.798060 
